<?xml version="1.0" encoding="UTF-8" standalone="no"?>
<svg
   width="243"
   height="260"
   viewBox="0 0 243 260"
   version="1.1"
   id="svg4"
   xmlns="http://www.w3.org/2000/svg"
   xmlns:svg="http://www.w3.org/2000/svg">

  <path
     d="M 131.618 72.768 C 129.936 73.152, 129.804 73.851, 130.381 79.349 C 130.737 82.732, 131.309 88.525, 131.654 92.221 L 132.282 98.942 129.576 99.971 C 128.088 100.537, 125.833 101, 124.566 101 C 121.705 101, 121.027 97.722, 121.011 83.809 C 121.005 78.479, 120.571 73.853, 120.046 73.528 C 117.972 72.247, 113.338 74.584, 105.601 80.814 C 101.145 84.402, 97.364 87.434, 97.199 87.553 C 96.758 87.869, 105.747 102.938, 108.698 106.829 L 111.223 110.158 108.424 113.079 C 106.885 114.686, 105.138 116, 104.541 116 C 102.436 116, 95.939 109.773, 91.387 103.393 C 87.877 98.474, 86.475 97.191, 85.500 98 C 83.134 99.964, 79.924 109.004, 79.329 115.382 L 78.738 121.706 89.619 124.363 C 95.604 125.824, 101.594 127.167, 102.930 127.349 C 105.662 127.719, 106.826 129.909, 106.930 134.872 L 107 138.244 94.846 137.575 C 88.162 137.207, 81.796 136.426, 80.700 135.840 C 78.813 134.829, 78.744 135, 79.399 139.094 C 80.667 147.026, 87.299 159, 90.424 159 C 93.008 159, 100.857 154.943, 106.945 150.461 L 113.124 145.913 116.555 148.034 C 120.909 150.725, 120.616 151.306, 109.688 161.651 L 101.282 169.608 107.714 173.286 C 116.354 178.226, 121.420 179.726, 123.534 177.972 C 126.174 175.781, 128.120 171.133, 130.392 161.587 L 132.548 152.532 137.274 152.188 L 142 151.845 141.994 156.672 C 141.989 160.951, 141.485 164.740, 139.323 176.750 C 138.790 179.714, 138.961 180, 141.268 180 C 142.659 180, 146.248 178.711, 149.244 177.135 C 155.012 174.101, 165 167.005, 165 165.942 C 165 165.594, 164.041 164.453, 162.868 163.405 C 161.695 162.357, 157.533 156.995, 153.618 151.488 L 146.500 141.476 142.565 143.333 C 140.400 144.355, 136.085 145.664, 132.975 146.242 C 127.782 147.208, 126.856 147.081, 121.622 144.685 C 116.501 142.340, 115.664 141.507, 113.351 136.455 C 111.216 131.793, 110.847 129.742, 111.185 124.428 C 111.465 120.036, 112.236 117.153, 113.635 115.261 C 118.829 108.238, 131.675 105.150, 140.239 108.864 L 144.978 110.920 146.239 108.525 C 146.933 107.207, 152.142 101.385, 157.817 95.586 L 168.133 85.042 162.091 81.137 C 154.426 76.183, 137.286 71.476, 131.618 72.768"
     fill="#E67E22"
     fill-rule="evenodd"
     id="Turbine" />
  <path
     d="m 107.106,18.31 c -0.608,3.495 -1.106,7.525 -1.106,8.957 0,3.639 -1.706,7.732 -3.225,7.738 -0.701,0.003 -5.761,2.028 -11.243,4.5 C 86.049,41.977 81.266,44 80.902,44 80.538,44 76.677,40.922 72.323,37.159 L 64.407,30.318 49.524,44.56 34.641,58.803 l 1.667,2.544 c 0.917,1.399 3.606,4.931 5.976,7.849 2.369,2.917 4.659,5.879 5.088,6.581 0.468,0.768 -1.046,5.004 -3.796,10.621 C 41.059,91.537 39,96.238 39,96.845 c 0,1.582 -4.293,3.496 -13.75,6.133 l -8.25,2.3 v 19.748 19.748 l 6.75,1.209 c 13.875,2.485 13.84,2.466 15.717,8.204 0.93,2.844 3.493,8.755 5.695,13.135 l 4.004,7.964 -7.083,7.13 c -3.896,3.922 -7.083,7.581 -7.083,8.131 0,1.031 5.414,6.726 20.336,21.392 l 8.586,8.44 5.789,-5.521 c 8.837,-8.428 8.951,-8.457 17.075,-4.33 3.811,1.937 9.344,4.371 12.293,5.41 2.95,1.038 5.455,2.265 5.567,2.725 0.113,0.46 0.739,5.449 1.392,11.087 l 1.187,10.25 h 19.235 19.234 l 1.717,-9.75 1.717,-9.75 6.963,-1.693 c 25.522,-6.205 46.048,-22.668 57.733,-46.307 6.014,-12.167 9.166,-28.265 9.172,-46.853 l 0.004,-11.853 -32.417,0.353 c -17.829,0.194 -32.695,0.631 -33.036,0.972 -0.34,0.34 -0.308,6.106 0.071,12.813 l 0.689,12.194 14.935,-0.415 c 17.169,-0.477 16.676,-0.75 14.991,8.313 -1.82,9.787 -5.854,16.596 -15.73,26.554 -10.924,11.015 -20.981,16.486 -33.842,18.412 -34.966,5.236 -70.599,-22.289 -75.847,-58.589 -3.099,-21.437 8.291,-47.031 27.062,-60.81 12.788,-9.387 24.482,-12.988 42.124,-12.97 10.825,0.011 13.575,0.368 20.521,2.667 9.704,3.211 17.93,8.086 28.046,16.618 l 7.595,6.406 13.919,-13.893 c 7.655,-7.641 13.885,-14.348 13.843,-14.906 -0.081,-1.083 -14.919,-14.559 -23.786,-21.602 -3.723,-2.958 -5.753,-3.977 -6.642,-3.335 -0.705,0.508 -3.98,3.05 -7.279,5.648 l -5.998,4.725 -6.36,-2.623 C 162.362,38.883 157.025,36.924 154,35.972 L 148.5,34.242 147,23.371 145.5,12.5 126.856,12.228 108.213,11.957 107.106,18.31"
     fill="#2C3E50"
     fill-rule="evenodd"
     id="G"
     style="display:inline" />
</svg>
